<svg viewBox="0 0 24 24" fill="none" xmlns="http://www.w3.org/2000/svg">
  <g stroke-width="0"/>
  <g stroke-linecap="round" stroke-linejoin="round"/>
  <circle cx="12" cy="12" r="10" fill="#FCA311"/>
  <path fill-rule="evenodd" clip-rule="evenodd" d="M12 0C5.372 0 0 5.372 0 12s5.372 12 12 12 12-5.372 12-12S18.628 0 12 0m-.928 7.883L8.654 9.809c-1.014.807-1.521 1.212-1.422 1.662l.005.023c.113.447.756.62 2.043.964.714.192 1.071.288 1.239.558l.009.015c.162.275.069.618-.114 1.304l-.048.18c-.512 1.903-.766 2.855-.275 3.162s1.272-.314 2.835-1.56l2.418-1.925c1.016-.808 1.522-1.212 1.424-1.663l-.005-.023c-.114-.447-.756-.62-2.043-.964-.714-.192-1.071-.288-1.239-.558l-.009-.015c-.162-.273-.069-.617.114-1.303l.048-.18c.51-1.903.766-2.856.275-3.163s-1.273.315-2.837 1.56" fill="#14213D"/>
</svg>